<svg width="805" height="805" viewBox="0 0 805 805" fill="none" xmlns="http://www.w3.org/2000/svg">
<path d="M402.5 805C624.795 805 805 624.795 805 402.5C805 180.205 624.795 0 402.5 0C180.205 0 0 180.205 0 402.5C0 624.795 180.205 805 402.5 805Z" fill="#E60911"/>
<path d="M525.17 353.63C554.64 353.63 584.1 353.61 613.57 353.63C626 353.64 632.44 360.07 632.49 372.43C632.5 375.32 632.51 378.21 632.49 381.1C632.41 392.4 625.59 399.52 614.21 399.67C599.38 399.86 584.55 399.7 569.72 399.75C560.42 399.78 557.33 402.89 557.33 412.31C557.31 468.56 557.33 524.81 557.27 581.06C557.27 584.49 557.03 588.03 556.12 591.31C554 599.01 548.33 603.11 540.42 603.24C536.76 603.3 533.1 603.25 529.44 603.24C517.53 603.2 511.25 597.02 511.24 585.15C511.21 536.61 511.23 488.06 511.23 439.52C511.23 430.85 511.29 422.18 511.21 413.51C511.12 403.21 507.58 399.75 497.24 399.74C476.44 399.73 455.64 399.72 434.84 399.74C425.75 399.75 422.26 403.22 422.15 412.24C422.1 416.67 422.04 421.1 422.17 425.53C422.39 433.21 426 436.8 433.63 436.88C442.3 436.97 450.96 436.84 459.63 436.94C472.4 437.09 479.59 444.3 479.83 457.09C479.89 459.98 479.96 462.88 479.75 465.75C478.94 476.53 472.05 482.94 461.26 483C452.79 483.05 444.31 482.94 435.84 483.03C425.87 483.13 422.21 486.84 422.14 496.65C422.12 499.35 421.98 502.05 422.16 504.74C422.98 517.15 428.52 520.11 437.02 516.52C444.64 513.3 452.04 509.57 459.54 506.07C470.2 501.09 480.47 503.89 485.16 514.69C491.58 529.44 490.37 540.04 472.61 552.21C439.36 574.48 407.98 584.35 372.24 591.49C358.13 594.31 343.84 596.28 329.55 598.04C324.7 598.64 319.61 597.55 314.67 596.89C312.84 596.65 310.99 595.68 309.41 594.64C300.64 588.85 296.06 565.81 302.67 557.7C305.48 554.25 310.06 551.23 314.36 550.18C330.6 546.23 346.99 543.99 363.44 539.79C373.77 537.15 376.01 535.21 376.02 524.72C376.02 515.09 376.05 505.46 376.02 495.82C375.98 486.98 372.37 483.2 363.4 483.04C353.97 482.86 344.53 483.04 335.09 482.97C325.99 482.9 319.41 478.03 317.9 469.08C316.96 463.48 316.92 457.5 317.77 451.89C319.16 442.75 326.17 437.21 335.64 436.97C344.88 436.74 354.13 436.92 363.37 436.88C373.01 436.84 375.97 433.81 376.01 423.98C376.03 419.36 376.13 414.73 375.97 410.11C375.73 403.43 372.15 399.87 365.4 399.76C355.97 399.61 346.53 399.77 337.09 399.69C324.66 399.57 317.42 392.37 317.14 379.93C317.07 377.04 317.02 374.14 317.19 371.26C317.85 360.25 324.85 353.67 335.92 353.61C344.97 353.56 354.02 353.67 363.08 353.57C372.41 353.47 375.96 349.83 376.01 340.58C376.04 335.19 376.14 329.79 375.97 324.4C375.75 317.38 372.59 314.22 365.55 314.11C356.69 313.97 347.83 314.12 338.97 314.02C323.93 313.84 317.11 306.97 317.16 291.93C317.17 288.11 317.3 284.18 318.19 280.51C319.88 273.52 324.51 268.71 331.74 268.13C342.07 267.3 352.48 267.33 362.86 267.14C373.5 266.94 375.99 264.49 376 253.67C376.02 243.65 375.94 234.64 376.03 224.62C376.14 212.65 381.49 204.4 398.07 204.4C417.49 204.4 422.2 210.48 422.2 226.09C422.2 234.16 422.14 246.47 422.14 255.36C422.14 264.25 425.41 266.96 433.63 267.08C442.1 267.2 450.58 266.97 459.05 267.2C473.07 267.6 479.71 274.56 479.83 288.6C479.84 290.14 479.85 291.68 479.83 293.22C479.64 306.48 472.84 313.58 459.57 313.97C450.91 314.22 442.24 313.99 433.57 314.09C425.74 314.18 422.33 317.56 422.14 325.35C422.03 330.16 422.1 334.98 422.12 339.8C422.17 349.94 425.82 353.58 436.18 353.6C458.71 353.64 481.25 353.61 503.78 353.61C510.91 353.61 518.03 353.61 525.16 353.61L525.17 353.63Z" fill="white"/>
<path d="M233.84 433.46C230.66 435.19 229.04 436.12 227.38 436.98C221.07 440.26 214.95 444.07 208.35 446.58C204.25 448.14 199.23 448.69 194.92 447.95C186.82 446.57 173.13 428.7 172.55 420.42C172.12 414.2 174.46 409.81 179.67 406.38C189.47 399.92 198.9 392.9 208.75 386.52C234.09 370.09 252.96 347.3 271.03 323.71C273.6 320.35 276.25 317.04 278.71 313.6C282.15 308.81 286.75 307.38 292.36 308.43C303.75 310.56 317.9 327.53 316.77 338.51C316.33 342.77 314.95 347.4 312.61 350.92C303.68 364.34 294.47 377.59 284.73 390.43C281.62 394.53 279.86 398.21 279.87 403.36C280 463.05 279.97 522.73 279.9 582.42C279.9 585.64 279.78 589.07 278.73 592.06C273.64 606.51 261.15 602.99 250.37 603.19C242.56 603.33 236.86 598.9 234.71 591.24C233.95 588.52 233.87 585.55 233.87 582.7C233.82 535.72 233.84 488.74 233.84 441.77C233.84 439.52 233.84 437.27 233.84 433.49V433.46Z" fill="white"/>
<path d="M176.1 309.37C176.19 304.08 178.89 300.52 183.17 297.58C196.48 288.43 209.68 279.12 222.86 269.78C242.32 255.99 256.29 237.02 270.89 218.66C273.52 215.35 276.03 211.94 278.58 208.56C284.28 201 292.73 199.14 300.07 205.2C305.91 210.02 310.94 216.07 315.44 222.22C319.47 227.73 317.63 234.05 315.08 239.84C308.02 255.86 297.75 269.81 286.09 282.67C267.31 303.39 245.22 319.98 220.55 333.07C216.01 335.48 211.01 337.08 206.14 338.8C204.58 339.35 202.7 339.42 201.04 339.18C191.08 337.69 175.94 319.49 176.1 309.37Z" fill="white"/>
<path opacity="0.77" d="M534.43 344.6C532.68 341.83 507.58 288.63 496.62 263.4C485.69 238.27 498.98 209.72 523.99 203.29C551.08 196.32 577.6 218.32 574.91 246.22C574.08 254.82 571.64 263.6 568.22 271.56C559.4 292.05 549.61 312.13 540.21 332.36C538.59 335.84 536.94 339.3 534.44 344.6H534.43ZM548.24 245.78C548.36 237.55 542.1 230.68 534.21 230.39C526.26 230.1 519.25 237.16 519.22 245.48C519.2 253.01 526 259.84 533.64 259.95C541.33 260.06 548.12 253.46 548.24 245.78Z" fill="white"/>
</svg>
